<svg width="50" height="66" viewBox="0 0 50 66" fill="none" xmlns="http://www.w3.org/2000/svg">
<path fill-rule="evenodd" clip-rule="evenodd" d="M28.2564 17.1643C28.7255 12.4449 30.845 3.32937 37.5684 6.14016C41.8462 7.92931 45.5587 13.3924 44.6237 18.1322C43.4516 24.0726 36.6522 24.1198 32.0252 22.8021C30.693 22.4232 29.3866 21.9333 28.1035 21.3675C28.0752 19.9652 28.1176 18.5616 28.2564 17.1643ZM0.763544 0.591213C6.60985 9.57054 15.0325 17.9088 24.7707 22.8988C24.9487 25.3604 25.3037 27.6789 25.7098 29.6155C28.07 40.866 34.4636 52.6432 42.8567 60.5496C43.7742 61.4133 45.1151 60.6862 45.3824 59.6857C45.299 60.2583 45.2085 60.83 45.1108 61.4008C43.6328 61.0864 42.2512 60.5502 40.8968 59.7552C40.0694 59.2692 39.3312 58.516 38.4811 58.1019C37.9748 57.8551 37.6956 58.1438 37.1805 57.7998C37.0163 57.69 36.7516 57.8127 36.8345 58.0345C37.0618 58.6415 36.8268 59.1361 37.0797 59.7337C37.4776 60.6753 38.872 61.7805 39.6523 62.3619C41.5958 63.8099 43.8642 64.682 46.2314 65.1298C47.2202 65.3165 48.0316 64.6292 48.2779 63.715C48.8818 61.4741 49.1678 59.1472 49.3003 56.8339C49.4145 54.8296 49.674 52.56 48.9182 50.6687C48.3264 49.1855 46.2352 49.3438 45.8724 50.9005C45.4294 52.8 45.8096 54.8711 45.6932 56.8221C45.6434 57.6586 45.5464 58.4842 45.4333 59.3072C45.4272 59.0416 45.3423 58.7694 45.1499 58.511C38.9318 50.1622 32.7978 42.3947 29.8196 32.2014C29.0871 29.6981 28.5668 27.121 28.2986 24.5201C28.5196 24.6115 28.7385 24.7134 28.9616 24.8023C36.3029 27.7085 47.9089 27.1502 47.974 16.7403C48.0211 9.35151 39.2196 -1.36054 31.2464 3.41976C26.1519 6.47384 24.6518 13.1876 24.6528 19.6444C21.695 18.0018 18.88 16.0481 16.2146 14.1543C10.6578 10.2073 5.63978 5.44326 1.12359 0.349368C0.944342 0.147548 0.606113 0.3498 0.763544 0.591213Z" fill="black"/>
</svg>
