<svg width="515" height="547" viewBox="0 0 515 547" fill="none" xmlns="http://www.w3.org/2000/svg">
<g filter="url(#filter0_d_219_29)">
<rect x="31" y="17" width="460" height="500" fill="white"/>
<path d="M32.2902 3.39062C32.2902 59.2928 32.9266 81.7585 32.9266 141.21M32.9266 141.21C32.9266 200.661 32.8282 309.018 32.2902 381.845C31.7522 454.671 31.3347 525.558 31.3347 525.558C31.3347 535.844 30.1579 523.706 30.2437 518.232C30.351 511.391 31.3806 316.738 31.3806 299.746C31.3806 282.753 32.2902 196.251 32.9266 141.21Z" stroke="#1E293B" stroke-width="6.28125" stroke-miterlimit="10" stroke-linecap="round" stroke-linejoin="round"/>
<path d="M415.684 516.718C491.362 516.718 480.792 516.718 505.656 516.718C505.229 517.004 501.373 518.098 499.782 518.319C497.793 518.596 445.62 518.445 434.485 518.445C396.368 518.445 224.176 517.412 212.906 517.412M415.684 516.718C415.684 516.718 233.16 518.445 204.049 518.445C174.938 518.445 181.823 518.492 120.367 518.445C74.4203 518.41 19.4792 518.445 15.782 518.445C12.0849 518.445 13.4491 516.373 13.4491 516.373C39.2921 517.412 84.2684 517.412 143.338 517.412C163.693 517.412 187.501 517.412 212.906 517.412M415.684 516.718C360.361 516.718 281.954 517.412 212.906 517.412" stroke="#1E293B" stroke-width="6.28125" stroke-miterlimit="10" stroke-linecap="round" stroke-linejoin="round"/>
<path d="M490.421 268.839C490.422 333.886 491.838 374.813 491.838 417.344C491.838 459.874 491.115 531.927 491.115 531.927C491.115 531.927 489.448 534.962 489.448 529.029C489.448 523.096 490.538 480.916 490.421 420.297C490.304 359.679 490.31 296.158 490.421 268.839ZM490.421 268.839C490.421 238.176 489.664 175.54 489.709 140.685C489.759 101.602 489.709 45.3177 489.709 7.57812" stroke="#1E293B" stroke-width="6.28125" stroke-miterlimit="10" stroke-linecap="round" stroke-linejoin="round"/>
<path d="M24.7188 17.9025C51.1727 17.9025 74.2532 17.9025 87.8616 17.9025M87.8616 17.9025C101.47 17.9025 161.891 18.2077 187.475 18.2077M87.8616 17.9025C87.8616 17.9025 117.372 16.9525 134.675 16.9525C151.977 16.9525 187.475 18.2077 187.475 18.2077M510.891 18.2077C483.815 18.2077 496.334 17.9025 469.441 17.9025C454.112 17.9025 435.359 18.4112 408.475 18.2077M259.488 16.9525C278.093 16.9819 375.338 17.957 408.475 18.2077M259.488 16.9525C240.247 16.9221 213.059 18.2077 187.475 18.2077M259.488 16.9525C259.488 16.9525 306.14 16.9525 332.268 16.9525M408.475 18.2077C408.475 18.2077 358.396 16.9525 332.268 16.9525M187.475 18.2077C203.156 18.2077 239.513 18.2077 259.488 18.2077C279.464 18.2077 316.332 17.3709 332.268 16.9525" stroke="#1E293B" stroke-width="6.28125" stroke-miterlimit="10" stroke-linecap="round" stroke-linejoin="round"/>
</g>
<defs>
<filter id="filter0_d_219_29" x="0.640625" y="0.25" width="513.391" height="546.063" filterUnits="userSpaceOnUse" color-interpolation-filters="sRGB">
<feFlood flood-opacity="0" result="BackgroundImageFix"/>
<feColorMatrix in="SourceAlpha" type="matrix" values="0 0 0 0 0 0 0 0 0 0 0 0 0 0 0 0 0 0 127 0" result="hardAlpha"/>
<feOffset dx="-9.42188" dy="10.4688"/>
<feComposite in2="hardAlpha" operator="out"/>
<feColorMatrix type="matrix" values="0 0 0 0 0.450781 0 0 0 0 0.416581 0 0 0 0 0.353882 0 0 0 0.57 0"/>
<feBlend mode="normal" in2="BackgroundImageFix" result="effect1_dropShadow_219_29"/>
<feBlend mode="normal" in="SourceGraphic" in2="effect1_dropShadow_219_29" result="shape"/>
</filter>
</defs>
</svg>
