<svg width="53" height="51" viewBox="0 0 53 51" fill="none" xmlns="http://www.w3.org/2000/svg">
<path fill-rule="evenodd" clip-rule="evenodd" d="M26.4419 1.49658C12.8736 1.49658 1.88379 12.5082 1.88379 26.1036C1.88379 36.9923 8.91356 46.1891 18.6754 49.4496C19.9033 49.6649 20.3638 48.9267 20.3638 48.2807C20.3638 47.6963 20.3331 45.7585 20.3331 43.6977C14.1629 44.8358 12.5666 42.1905 12.0754 40.8063C11.7991 40.0989 10.6019 37.915 9.55821 37.3306C8.69867 36.8692 7.47077 35.7311 9.52751 35.7004C11.4615 35.6696 12.8429 37.4844 13.3033 38.2226C15.5136 41.9444 19.0438 40.8986 20.4559 40.2527C20.6708 38.6532 21.3154 37.5767 22.0215 36.9615C16.5573 36.3463 10.8475 34.224 10.8475 24.8118C10.8475 22.1357 11.7991 19.9211 13.3647 18.1986C13.1191 17.5834 12.2596 15.0612 13.6103 11.6777C13.6103 11.6777 15.667 11.0318 20.3638 14.2C22.3284 13.6463 24.4159 13.3695 26.5033 13.3695C28.5908 13.3695 30.6782 13.6463 32.6429 14.2C37.3396 11.0011 39.3963 11.6777 39.3963 11.6777C40.747 15.0612 39.8875 17.5834 39.6419 18.1986C41.2075 19.9211 42.1591 22.105 42.1591 24.8118C42.1591 34.2547 36.4187 36.3463 30.9545 36.9615C31.8447 37.7305 32.6122 39.2069 32.6122 41.5138C32.6122 44.805 32.5815 47.4503 32.5815 48.2807C32.5815 48.9267 33.0419 49.6956 34.2698 49.4496C39.1451 47.8004 43.3814 44.661 46.3826 40.4729C49.3839 36.2851 50.9988 31.2596 51.0001 26.1036C51.0001 12.5082 40.0103 1.49658 26.4419 1.49658Z" stroke="black" stroke-width="3" stroke-linejoin="round"/>
</svg>
