<svg width="52" height="51" viewBox="0 0 52 51" fill="none" xmlns="http://www.w3.org/2000/svg">
<path fill-rule="evenodd" clip-rule="evenodd" d="M5.61608 1.49658C3.65951 1.49658 2 3.04566 2 4.95194V46.0412C2 47.9498 3.08808 49.4966 5.04465 49.4966H45.9509C47.9098 49.4966 50 47.9498 50 46.0412V4.95194C50 3.04566 48.4812 1.49658 46.5223 1.49658H5.61608ZM12.2857 7.49658C14.6537 7.49658 16.5714 9.4143 16.5714 11.7823C16.5714 14.1503 14.6537 16.068 12.2857 16.068C9.91772 16.068 8 14.1503 8 11.7823C8 9.4143 9.91772 7.49658 12.2857 7.49658ZM34.3125 19.4966C41.2177 19.4966 43.1429 23.1611 43.1429 29.9519V42.6394H36.2857V31.2019C36.2857 28.1619 35.071 25.4966 32.2321 25.4966C28.7853 25.4966 27.1429 27.8309 27.1429 31.6618V42.6394H20.2857V19.7823H26.7455V23.0769H26.8168C27.802 21.3009 30.7148 19.4966 34.3125 19.4966ZM8.85714 19.7823H15.7143V42.6394H8.85714V19.7823Z" stroke="black" stroke-width="3"/>
</svg>
