<svg width="49" height="49" viewBox="0 0 49 49" fill="none" xmlns="http://www.w3.org/2000/svg">
<path d="M24.4778 48.9966C26.0743 48.9966 27.3824 47.8216 27.6041 46.1586C29.799 31.3477 31.8167 29.2857 46.0513 27.6673C47.6918 27.4677 48.9557 26.0931 48.9557 24.4967C48.9557 22.878 47.7141 21.5478 46.0733 21.3038C31.9276 19.3305 30.1761 17.6011 27.6041 2.81254C27.3158 1.17179 26.052 -0.00341797 24.4778 -0.00341797C22.8594 -0.00341797 21.5732 1.17179 21.3073 2.8346C19.1566 17.6234 17.139 19.6854 2.92667 21.3038C1.24159 21.5257 0 22.8559 0 24.4967C0 26.0931 1.19726 27.4234 2.88234 27.6673C17.0501 29.6849 18.7795 31.392 21.3073 46.1808C21.6398 47.8436 22.9257 48.9966 24.4778 48.9966Z" fill="#0C0C0C"/>
</svg>
