<svg width="52" height="51" viewBox="0 0 52 51" fill="none" xmlns="http://www.w3.org/2000/svg">
<path d="M42.8 1.49658H9.2C5.22355 1.49658 2 4.72013 2 8.69658V42.2966C2 46.273 5.22355 49.4966 9.2 49.4966H42.8C46.7765 49.4966 50 46.273 50 42.2966V8.69658C50 4.72013 46.7765 1.49658 42.8 1.49658Z" stroke="black" stroke-width="3"/>
<path opacity="0.12" d="M22.4819 20.304L30.5366 25.6782L31.6645 25.0943L22.4819 20.304Z" fill="#420000"/>
<path d="M42.6121 18.6452C42.6121 18.6452 42.2805 16.3097 41.2591 15.2747C39.9725 13.9212 38.5267 13.9212 37.8502 13.8416C33.1148 13.4966 25.9918 13.4966 25.9918 13.4966H25.9785C25.9785 13.4966 18.8555 13.4966 14.0935 13.8416C13.4303 13.9212 11.9845 13.9212 10.6846 15.2747C9.67649 16.3097 9.34488 18.6452 9.34488 18.6452C9.34488 18.6452 9 21.4053 9 24.1521V26.7264C9 29.4732 9.34488 32.22 9.34488 32.22C9.34488 32.22 9.67649 34.5555 10.6978 35.5905C11.9845 36.944 13.6824 36.9042 14.4384 37.0369C17.1576 37.3023 25.9785 37.3819 25.9785 37.3819C25.9785 37.3819 33.1148 37.3687 37.8634 37.0236C38.5267 36.944 39.9725 36.944 41.2724 35.5905C42.2938 34.5555 42.6254 32.22 42.6254 32.22C42.6254 32.22 42.9703 29.4732 42.9703 26.7264V24.1521C42.957 21.4053 42.6121 18.6452 42.6121 18.6452ZM22.4767 29.8448V20.3039L31.6557 25.0942L22.4767 29.8448Z" stroke="black" stroke-width="3"/>
</svg>
